<svg xmlns="http://www.w3.org/2000/svg" width="1558.401" height="601.05" viewBox="0 0 1558.401 601.05">
  <path id="Path_1" data-name="Path 1" d="M654.721,562.011,633.16,567.76l-25.154,3.593V577.1h6.468l24.435,8.624s23.717,2.875,32.341,5.749,42.4,10.062,42.4,10.062,16.53,7.906,18.686,8.624,10.78,3.593,15.092,10.062,15.092,30.9,15.092,30.9l20.842,58.932,7.187,30.185-7.187,18.686L751.743,796.3l-4.312,5.031,97.741-16.53V751.743l5.749-35.934,9.736-47.172,22.9-62.48L901.229,577.1l20.305-29.8L941.522,528.6,979.8,508.828l19.689-2.04,8.378-2.431,25.605,4.472s12.936.719,15.811,3.593,33.059,23,33.059,23l20.842,26.591,17.967,34.5,15.811,43.121,3.593,38.09v68.994l30.864-9.385,186.458-56.919,93.229-24.861,17.337-1.963,14.72,3.6s13.085,11.449,13.739,12.431,16.683,12.1,16.683,12.1l29.441-6.87s3.6-20.281,3.271-21.263,7.2-33.366,7.2-33.366l8.832-34.02,16.356-34.348,12.758-21.917,21.127-25.318,27.486-15.291s20.517-1.548,21.292-1.548,16.646,6.194,17.614,7.549,15.679,13.162,16.259,13.743,12.969,18.969,12.969,18.969l8.9,21.1,7.1,23.213,3.871,17.421,3.573,30.077,2.68,15.783,7-7.891s2.531-24.865,2.829-26.8,2.382-28.588,2.382-28.588V544.328l-2.382-37.292-3.214-23.47-10.791-15.13-10.795-18.319-4.186-9.814h-1.7l-9.98-4.27-1.833-1.618-4.123-2.505s-5.187-6.12-5.841-7.1-6.791-4.189-7.445-5.5-3.792-3.215-5.276-4.85c-1.206-1.328-.5-5.751-1.481-7.863-.067-.143.687-1.26.687-1.26s-2.47.522,2.11-2.095c1.58-.9,1.006-.617,1.83-.542.673-.015.706-.57,3.161-.57,3.266,0,14.728-.3,18.211-.989.161-.032,1.873,0,1.873,0l16.109-.271,4.229-.793-.529-2.2-16.973-8.276-68.134-47.949-48.613-37.593-23.6-15.479L1504.752,247.6l-36.486-16.1-41.107-10.792-31.044-5.528-42.1-6.379-59.111-2.977-95.029-4.318H1088.23l-58.685,4.318-58.652,1.9-38.927,4.907-67.714,7.524s-23.553,3.6-24.534,3.6-49.068,9.814-49.068,9.814l-13.412,5.561s43.932-3.108,46.058-2.683,77.822-5.954,77.822-5.954l109.291-3.4h216.456s70.593-2.977,71.869-2.977,86.327,2.977,86.327,2.977l37.423,4.414,45.784,12.171,29.487,13.183,31.044,20.838,31.316,23.51,9.814,8.3,4.026,8.555-2.516,8.052-11.323,14.846-18.621,17.614L1511.8,377.447l-48.062,9.059-74.986,8.807-56.423,4.429s-50.945,6.353-51.719,6.353-36.583,2.71-36.583,2.71l-36.583,3.871-11.033,3.484-7.743,5.807-7.355,7.936-15.678,1.548h-13.549s-7.743-3.484-8.71-5.807-4.452-6.581-4.646-7.743-.968-4.839,0-5.226,4.646-2.323,4.646-2.323V408.8l-2.71-1.355H1112.9l-51.876-4.988h-33.5l-23.079-1.042-122.975-1.576-157.773-1.51-195.014,3.02s-37.745,1.258-38.5,1.258-15.853,1.258-15.853,1.258l-53.6,8.556L386,417.206,345.742,424l-44.79,10.82-25.666,13.588-17.111,15.1-14.091,18.369-7.549,15.35v17.763l3.737,16.16,12.136,5.217-6,6.691-15.066,8.08-5.528-8.08h-5.528L207.4,556.434s-8.505,13.739-8.832,14.72-6.215,9.814-6.215,9.814l-2.944,8.505,3.966-1.041,11.033-7.464s4.384-5.357,9.291-6.666,7.178-5.765,8.291-6.419a42.97,42.97,0,0,0,6.673-5.561c.981-1.308,5.888-5.888,5.888-5.888v-3.925L254.5,535.4l16.683,2.388,58.228,3.271,112.2,2h98.137s44.489-4.939,45.8-4.939,49.4-15.7,49.4-15.7l67.387-20.281,64.443-17.337,52.667-12.431,59.209-11.776h20.282l4.253,14.72-17.765,20.609-21.49,30.749-10.141,7.2-13.412,9.192-15.7,7.457H797.85L738.968,554.8l-67.718,4.58Z" transform="translate(-188.625 -201.006)" fill="#f0d" stroke="#707070" stroke-width="1" style="mix-blend-mode: color;isolation: isolate"/>
</svg>
