<?xml version="1.0" encoding="utf-8"?>
<!-- Generator: Adobe Illustrator 26.2.1, SVG Export Plug-In . SVG Version: 6.00 Build 0)  -->
<svg version="1.1" id="Warstwa_1" xmlns="http://www.w3.org/2000/svg" xmlns:xlink="http://www.w3.org/1999/xlink" x="0px" y="0px"
	 viewBox="0 0 740.1 297.1" style="enable-background:new 0 0 740.1 297.1;" xml:space="preserve">
<style type="text/css">
	.st0{fill:#FFFFFF;}
</style>
<g id="Warstwa_2_00000095314778214825098990000002026810070195412916_">
	<g id="_warstwa_">
		<path class="st0" d="M398.3,65.5c0,4.1-2.7,7.4-9.2,7.4h-80.6l-6.5,28.2l-21.3-35.6l38-36.3l-6.7,29h77.5
			C396.3,58.4,398.3,61.5,398.3,65.5 M543.9,58.5l6.7-29.1H439.3L430.2,69c1.4-7.3,1.5-14.8-1.4-20.4c-3.7-7.9-12.2-17.5-32.2-19
			c-4-0.4-9.4-0.4-39.3-0.3h-38.6l29.7-28.4h-56.8l-32.2,32.5L241.1,0.9h-54.8l40.8,64.7l-69.1,74h53.4l35.7-39.4l24.2,39.4h64.8
			c0,0,7.7-33,8.7-37.1h37.2c8.8-0.3,25.2-0.8,37-11.7c4.2-3.2,7.8-9.8,10-17.1l-15.2,66h111.2L532,110h-68
			c0.9-3.8,2.8-11.6,3.4-14.2h67.8l5.3-22.8h-68c0.9-3.8,2.7-11.8,3.3-14.5L543.9,58.5z M588.1,109.5c1.6-6.8,18.6-80.2,18.6-80.2
			h-43.6l-25.5,110.2h97.2l6.9-30L588.1,109.5z M120.8,62.5c0-5.6-4.6-10.2-10.2-10.2c-5.6,0-10.2,4.6-10.2,10.2s4.6,10.2,10.2,10.2
			l0,0C116.3,72.7,120.8,68.1,120.8,62.5 M157.6,62.5c0-7.4-6-13.5-13.5-13.5c-7.4,0-13.5,6-13.5,13.5s6,13.5,13.5,13.5c0,0,0,0,0,0
			C151.5,75.9,157.6,69.9,157.6,62.5 M204.4,62.5c0-10.2-8.3-18.5-18.5-18.5c-10.2,0-18.5,8.3-18.5,18.5c0,10.2,8.3,18.5,18.5,18.5
			C196.1,81,204.4,72.7,204.4,62.5C204.4,62.5,204.4,62.5,204.4,62.5"/>
		<rect x="22" y="169.2" class="st0" width="718" height="7.6"/>
		<path class="st0" d="M161.5,201.9h17.8c2.4,0,4.7,0.3,7,1.1c1.9,0.7,3.7,1.7,5.2,3.1c1.4,1.3,2.6,3,3.3,4.8c0.8,1.9,1.2,4,1.2,6.1
			v0.1c0,2.3-0.4,4.6-1.4,6.7c-0.9,1.9-2.2,3.5-3.8,4.8c-1.7,1.3-3.6,2.3-5.6,2.9c-2.2,0.7-4.6,1-6.9,1h-7.3v13.1h-9.6L161.5,201.9z
			 M178.7,223.9c2,0.1,4.1-0.6,5.6-1.9c1.3-1.2,2-2.9,2-4.7v-0.1c0.1-1.9-0.7-3.7-2.1-4.9c-1.6-1.2-3.7-1.8-5.7-1.7h-7.4v13.3
			L178.7,223.9z"/>
		<path class="st0" d="M257.8,246.3c-3.2,0-6.3-0.6-9.3-1.8c-2.7-1.1-5.2-2.7-7.3-4.8c-2.1-2-3.7-4.4-4.8-7.1
			c-1.2-2.8-1.7-5.7-1.7-8.8v-0.1c0-6,2.3-11.7,6.6-15.9c2.1-2.1,4.6-3.7,7.3-4.9c3-1.2,6.1-1.8,9.3-1.8c3.2,0,6.3,0.6,9.3,1.8
			c2.7,1.1,5.2,2.7,7.3,4.8c2.1,2,3.7,4.4,4.8,7.1c1.2,2.8,1.7,5.8,1.7,8.8v0.1c0,3-0.6,6-1.8,8.8c-2.3,5.5-6.7,9.8-12.2,12
			C264.1,245.7,261,246.3,257.8,246.3z M257.9,237.4c1.8,0,3.6-0.3,5.3-1.1c1.6-0.7,3-1.7,4.1-2.9c1.2-1.3,2.1-2.7,2.7-4.3
			c0.7-1.7,1-3.5,1-5.3v-0.1c0-1.8-0.3-3.6-1-5.3c-1.2-3.3-3.7-5.9-6.9-7.3c-1.7-0.7-3.5-1.1-5.3-1.1c-1.8,0-3.6,0.3-5.3,1.1
			c-1.6,0.7-3,1.7-4.1,2.9c-1.2,1.3-2.1,2.7-2.7,4.3c-0.7,1.7-1,3.5-1,5.3v0.1c0,1.8,0.3,3.6,1,5.3c1.3,3.3,3.7,5.9,6.9,7.3
			C254.2,237.1,256,237.5,257.9,237.4L257.9,237.4z"/>
		<path class="st0" d="M323,201.9h9.6v35h21.8v8.7H323V201.9z"/>
		<path class="st0" d="M410,201.6h8.8l18.7,43.9h-10l-4-9.8h-18.4l-4,9.8h-9.8L410,201.6z M420.1,227.3l-5.8-14.1l-5.8,14.1H420.1z"
			/>
		<path class="st0" d="M477.8,201.9h8.8l20.4,26.9v-26.9h9.5v43.6h-8.2l-21.1-27.7v27.7h-9.5L477.8,201.9z"/>
		<path class="st0" d="M560.5,201.9h17c3.2,0,6.4,0.5,9.4,1.6c2.7,1,5.2,2.6,7.4,4.6c2,1.9,3.7,4.3,4.8,6.9c1.1,2.7,1.7,5.6,1.7,8.6
			v0.1c0,3-0.5,5.9-1.7,8.6c-1.1,2.6-2.7,5-4.8,6.9c-2.1,2-4.6,3.6-7.4,4.6c-3,1.2-6.2,1.7-9.4,1.7h-17L560.5,201.9z M577.5,236.9
			c1.8,0,3.6-0.3,5.4-0.9c1.6-0.6,3-1.5,4.2-2.7c1.2-1.2,2.1-2.6,2.7-4.1c0.7-1.7,1-3.5,1-5.3v-0.1c0-1.8-0.3-3.6-1-5.3
			c-0.6-1.6-1.5-3-2.7-4.2c-1.2-1.2-2.6-2.1-4.2-2.7c-1.7-0.7-3.5-1-5.4-1h-7.4v26.3L577.5,236.9z"/>
		<path class="st0" d="M106.3,268.5h7.5l11.9,28.1h-8.3l-2-5h-10.8l-2,5h-8.1L106.3,268.5z M113.1,285.6l-3.1-7.9l-3.2,7.9H113.1z"
			/>
		<path class="st0" d="M140.9,297.1c-1.8,0-3.6-0.2-5.4-0.8c-3.1-0.9-5.6-3.3-6.6-6.3c-0.6-1.8-0.9-3.8-0.9-5.7v-15.7h7.9v15.5
			c-0.1,1.6,0.4,3.2,1.4,4.5c1,1,2.3,1.5,3.7,1.5c1.4,0.1,2.7-0.4,3.7-1.4c1-1.2,1.5-2.8,1.4-4.4v-15.7h7.9v15.5c0,2-0.3,4-0.9,5.9
			c-1.1,3.1-3.6,5.5-6.8,6.4C144.5,296.9,142.7,297.1,140.9,297.1z"/>
		<path class="st0" d="M165.4,275.4H157v-6.8h24.5v6.8h-8.4v21.1h-7.7L165.4,275.4z"/>
		<path class="st0" d="M184.9,268.7h7.7v10.5h9.9v-10.5h7.7v27.9h-7.7V286h-9.9v10.6h-7.7V268.7z"/>
		<path class="st0" d="M229.3,297.1c-2.1,0-4.1-0.4-6-1.1c-1.8-0.7-3.4-1.8-4.8-3.1c-2.7-2.7-4.3-6.4-4.3-10.2v-0.1
			c0-1.9,0.4-3.9,1.1-5.6c0.7-1.7,1.8-3.3,3.2-4.6c1.4-1.3,3-2.4,4.8-3.1c3.9-1.5,8.1-1.5,12,0c1.8,0.7,3.4,1.8,4.8,3.1
			c1.3,1.3,2.4,2.9,3.1,4.6c0.8,1.8,1.2,3.7,1.1,5.6v0.1c0,3.9-1.5,7.6-4.3,10.3c-1.4,1.3-3,2.4-4.8,3.1
			C233.4,296.8,231.4,297.2,229.3,297.1z M229.4,290.1c1,0,2-0.2,2.9-0.6c0.8-0.4,1.6-0.9,2.2-1.6c0.6-0.7,1.1-1.5,1.4-2.4
			c0.3-0.9,0.5-1.9,0.5-2.9v-0.1c0-1-0.2-2-0.5-2.9c-0.3-0.9-0.8-1.7-1.5-2.4c-0.6-0.7-1.4-1.3-2.3-1.6c-0.9-0.4-1.9-0.6-2.9-0.6
			c-1.9,0-3.8,0.8-5.1,2.2c-0.6,0.7-1.1,1.5-1.4,2.4c-0.3,0.9-0.5,1.9-0.5,2.9v0.1c0,1,0.2,2,0.5,2.9c0.3,0.9,0.8,1.7,1.5,2.4
			C225.5,289.3,227.4,290.2,229.4,290.1L229.4,290.1z"/>
		<path class="st0" d="M248.4,268.7h13.2c1.9,0,3.7,0.2,5.5,0.8c1.4,0.5,2.6,1.2,3.6,2.2c1.7,1.7,2.6,4.1,2.5,6.5v0.1
			c0.1,1.9-0.5,3.8-1.6,5.4c-1.1,1.4-2.5,2.6-4.2,3.2l6.7,9.7h-8.9l-5.6-8.5h-3.4v8.5h-7.7V268.7z M261.3,282.1
			c1.1,0.1,2.2-0.2,3.1-0.9c0.7-0.6,1.1-1.5,1.1-2.4v-0.1c0.1-1-0.3-1.9-1.1-2.5c-0.9-0.6-2-0.9-3.1-0.8h-5.1v6.7L261.3,282.1z"/>
		<path class="st0" d="M277.3,268.7h7.7v27.9h-7.8L277.3,268.7z"/>
		<path class="st0" d="M289.3,291l14-15.8h-13.5v-6.5H314v5.6L300,290h14v6.5h-24.7L289.3,291z"/>
		<path class="st0" d="M318,268.7h22.4v6.6h-14.8v4.2H339v6.1h-13.4v4.4h15v6.6H318V268.7z"/>
		<path class="st0" d="M344.6,268.7h10.8c2.3,0,4.5,0.3,6.7,1c1.8,0.6,3.5,1.6,5,2.9c1.3,1.2,2.4,2.7,3.1,4.4
			c0.7,1.8,1.1,3.7,1.1,5.6v0.1c0,1.9-0.3,3.8-1.1,5.6c-0.7,1.7-1.8,3.2-3.1,4.5c-1.5,1.3-3.2,2.3-5,2.9c-2.2,0.7-4.4,1.1-6.7,1.1
			h-10.6L344.6,268.7z M355.5,289.7c2,0.1,4-0.6,5.6-1.8c1.5-1.3,2.2-3.2,2.1-5.2v-0.1c0.1-2-0.7-3.9-2.1-5.2
			c-1.6-1.3-3.6-1.9-5.6-1.9h-3.2v14.2L355.5,289.7z"/>
		<path class="st0" d="M386.2,268.7H397c2.3,0,4.5,0.3,6.7,1c1.8,0.6,3.5,1.6,4.9,2.9c1.3,1.2,2.4,2.7,3.1,4.4
			c0.7,1.8,1.1,3.7,1.1,5.6v0.1c0,1.9-0.3,3.8-1.1,5.6c-0.7,1.7-1.8,3.2-3.1,4.5c-1.5,1.3-3.2,2.3-5,2.9c-2.2,0.7-4.4,1.1-6.7,1.1
			h-10.6L386.2,268.7z M397.1,289.7c2,0.1,4-0.6,5.6-1.8c1.5-1.3,2.2-3.2,2.1-5.2v-0.1c0.1-2-0.7-3.9-2.1-5.2
			c-1.6-1.3-3.6-1.9-5.6-1.9h-3.2v14.2L397.1,289.7z"/>
		<path class="st0" d="M416.9,268.7h7.8v27.9h-7.8V268.7z"/>
		<path class="st0" d="M440.7,297.1c-2.4,0-4.8-0.4-7.1-1.2c-2.2-0.7-4.3-1.9-6-3.5l4.3-5.1c2.5,2.1,5.7,3.3,9,3.4
			c0.8,0,1.6-0.1,2.4-0.5c0.5-0.3,0.8-0.8,0.8-1.4v-0.1c0-0.3-0.1-0.5-0.2-0.8c-0.2-0.3-0.4-0.5-0.7-0.7c-0.5-0.3-0.9-0.5-1.4-0.6
			c-0.8-0.2-1.5-0.5-2.3-0.6c-1.5-0.4-2.9-0.7-4.2-1.1c-1.2-0.4-2.3-0.9-3.3-1.6c-0.9-0.6-1.7-1.5-2.2-2.4c-0.6-1.1-0.9-2.3-0.8-3.6
			v-0.1c0-1.2,0.2-2.5,0.7-3.6c0.5-1.1,1.2-2.1,2.2-2.8c1-0.8,2.2-1.5,3.4-1.9c1.5-0.5,3-0.7,4.5-0.6c2.2,0,4.3,0.3,6.4,0.9
			c1.8,0.6,3.6,1.6,5.1,2.8l-3.9,5.5c-1.2-0.9-2.5-1.6-3.9-2c-1.2-0.5-2.6-0.7-3.9-0.7c-0.7-0.1-1.5,0.1-2.1,0.5
			c-0.4,0.3-0.7,0.8-0.7,1.3v0.1c0,0.3,0.1,0.6,0.2,0.8c0.2,0.3,0.5,0.5,0.8,0.6c0.5,0.2,1,0.4,1.5,0.6c0.6,0.2,1.4,0.4,2.4,0.6
			c1.5,0.3,2.9,0.7,4.3,1.2c1.2,0.4,2.3,1,3.3,1.7c0.9,0.6,1.6,1.5,2.1,2.4c0.5,1,0.7,2.2,0.7,3.4v0.1c0,1.3-0.3,2.6-0.8,3.8
			c-0.5,1.1-1.3,2.1-2.3,2.9c-1.1,0.8-2.3,1.4-3.6,1.8C443.8,296.9,442.2,297.1,440.7,297.1z"/>
		<path class="st0" d="M462.6,275.4h-8.4v-6.8h24.5v6.8h-8.4v21.1h-7.7V275.4z"/>
		<path class="st0" d="M482.1,268.7h13.2c1.9,0,3.7,0.2,5.5,0.8c1.4,0.5,2.6,1.2,3.6,2.2c1.7,1.7,2.6,4.1,2.5,6.5v0.1
			c0.1,1.9-0.5,3.8-1.6,5.4c-1.1,1.4-2.5,2.6-4.2,3.2l6.7,9.7h-8.9l-5.6-8.5h-3.4v8.5h-7.7L482.1,268.7z M494.9,282.1
			c1.1,0.1,2.2-0.2,3.1-0.9c0.7-0.6,1.1-1.5,1.1-2.4v-0.1c0.1-1-0.4-1.9-1.1-2.5c-0.9-0.6-2-0.9-3.1-0.8h-5.1v6.7L494.9,282.1z"/>
		<path class="st0" d="M510.9,268.7h7.8v27.9h-7.8V268.7z"/>
		<path class="st0" d="M523.8,268.7h14.3c1.5,0,3,0.2,4.5,0.6c1.2,0.4,2.2,1,3.1,1.9c0.6,0.6,1,1.2,1.3,2c0.3,0.8,0.5,1.7,0.5,2.6
			v0.1c0.1,1.4-0.4,2.8-1.2,3.9c-0.8,1-1.9,1.8-3.1,2.3c1.5,0.5,2.9,1.3,4.1,2.4c1.1,1.2,1.6,2.8,1.5,4.4v0.1c0.1,2.2-1,4.4-2.8,5.7
			c-1.8,1.3-4.4,2-7.8,2h-14.4L523.8,268.7z M536.2,279.8c1,0.1,1.9-0.1,2.7-0.6c0.6-0.4,1-1.1,0.9-1.8v-0.1c0-0.7-0.3-1.4-0.9-1.8
			c-0.8-0.5-1.7-0.7-2.6-0.6h-5v4.9L536.2,279.8z M537.3,290.4c1,0.1,1.9-0.2,2.8-0.7c0.6-0.4,1-1.1,1-1.9v-0.1
			c0-0.7-0.3-1.4-0.9-1.8c-0.9-0.5-1.9-0.8-2.9-0.7h-5.9v5.1H537.3z"/>
		<path class="st0" d="M564.9,297.1c-1.8,0-3.6-0.2-5.4-0.8c-3.1-0.9-5.6-3.3-6.6-6.3c-0.6-1.8-0.9-3.8-0.9-5.7v-15.7h7.9v15.5
			c-0.1,1.6,0.4,3.2,1.4,4.5c1,1,2.3,1.5,3.7,1.5c1.4,0.1,2.7-0.4,3.7-1.4c1-1.2,1.5-2.8,1.4-4.4v-15.7h7.9v15.5c0,2-0.3,4-0.9,5.9
			c-1.1,3.1-3.6,5.5-6.8,6.4C568.6,296.9,566.7,297.1,564.9,297.1z"/>
		<path class="st0" d="M589.4,275.4H581v-6.8h24.5v6.8h-8.4v21.1h-7.7L589.4,275.4z"/>
		<path class="st0" d="M623,297.1c-2.1,0-4.1-0.4-6-1.1c-1.8-0.7-3.4-1.8-4.8-3.1c-1.3-1.3-2.4-2.9-3.1-4.6
			c-0.8-1.8-1.2-3.7-1.1-5.6v-0.1c0-3.9,1.5-7.6,4.3-10.3c1.4-1.3,3-2.4,4.8-3.1c3.9-1.5,8.1-1.5,12,0c1.8,0.7,3.4,1.8,4.8,3.1
			c1.3,1.3,2.4,2.9,3.1,4.6c0.8,1.8,1.2,3.7,1.1,5.6v0.1c0,3.9-1.5,7.6-4.3,10.3c-1.4,1.3-3,2.4-4.8,3.1
			C627.1,296.8,625.1,297.2,623,297.1z M623.1,290.1c1,0,2-0.2,2.9-0.6c0.8-0.4,1.6-0.9,2.2-1.6c0.6-0.7,1.1-1.5,1.4-2.4
			c0.3-0.9,0.5-1.9,0.5-2.9v-0.1c0-1-0.2-2-0.5-2.9c-0.3-0.9-0.8-1.7-1.5-2.4c-0.6-0.7-1.4-1.3-2.3-1.6c-0.9-0.4-1.9-0.6-2.9-0.6
			c-1,0-2,0.2-2.9,0.6c-0.8,0.4-1.6,0.9-2.2,1.6c-0.6,0.7-1.1,1.5-1.4,2.4c-0.3,0.9-0.5,1.9-0.5,2.9v0.1c0,1,0.2,2,0.5,2.9
			c0.3,0.9,0.8,1.7,1.5,2.4c0.6,0.7,1.4,1.3,2.3,1.7C621,289.9,622,290.2,623.1,290.1L623.1,290.1z"/>
		<path class="st0" d="M642.1,268.7h13.2c1.9,0,3.7,0.2,5.5,0.8c1.4,0.5,2.6,1.2,3.6,2.2c1.7,1.7,2.6,4.1,2.5,6.5v0.1
			c0.1,1.9-0.5,3.8-1.6,5.4c-1.1,1.4-2.5,2.6-4.2,3.2l6.7,9.7h-8.9l-5.6-8.5h-3.4v8.5h-7.7V268.7z M654.9,282.1
			c1.1,0.1,2.2-0.2,3.1-0.9c0.7-0.6,1.1-1.5,1.1-2.4v-0.1c0.1-1-0.3-1.9-1.1-2.5c-0.9-0.6-2-0.9-3.1-0.8h-5.1v6.7L654.9,282.1z"/>
		<path class="st0" d="M643.4,41.6c-2.8,0-5.6-0.5-8.2-1.6c-2.5-1-4.7-2.6-6.6-4.5c-1.9-1.9-3.4-4.1-4.4-6.6c-1.1-2.5-1.6-5.3-1.6-8
			v-0.1c0-2.7,0.5-5.5,1.6-8c2.1-5,6.1-9,11.1-11.2c5.2-2.2,11.1-2.2,16.4,0c5,2.1,8.9,6,11,11c1.1,2.5,1.6,5.3,1.6,8v0.1
			c0,2.7-0.5,5.5-1.6,8c-1,2.5-2.5,4.7-4.4,6.6c-1.9,1.9-4.2,3.4-6.6,4.5C649,41,646.2,41.6,643.4,41.6z M643.4,39.3
			c2.5,0,5-0.5,7.3-1.5c2.2-0.9,4.2-2.3,5.8-4c1.7-1.7,3-3.7,3.9-5.9c0.9-2.3,1.4-4.7,1.4-7.2v-0.1c0-2.5-0.5-4.9-1.4-7.2
			c-0.9-2.2-2.2-4.2-3.8-5.9c-1.7-1.7-3.6-3-5.8-3.9c-4.7-1.9-9.9-1.9-14.6,0c-2.2,0.9-4.2,2.3-5.8,4c-1.7,1.7-3,3.7-3.9,5.9
			c-0.9,2.3-1.4,4.7-1.4,7.2v0.1c0,2.5,0.5,4.9,1.4,7.2c1.8,4.4,5.3,8,9.7,9.8C638.4,38.9,640.9,39.4,643.4,39.3z M634.9,9.1h9.8
			c2.5-0.2,5,0.7,6.8,2.4c1.3,1.3,1.9,3,1.8,4.8v0.1c0.1,1.6-0.4,3.1-1.3,4.4c-0.9,1.1-2.1,2-3.4,2.5l5.4,7.9h-5.7l-4.7-7.1h-3.8
			v7.1h-4.9L634.9,9.1z M644.6,20c1,0.1,2-0.2,2.8-0.9c0.7-0.6,1-1.4,1-2.3v-0.1c0.1-0.9-0.3-1.8-1-2.4c-0.8-0.6-1.8-0.9-2.9-0.8
			h-4.8V20H644.6z"/>
	</g>
</g>
</svg>
